<svg width="24" height="20" viewBox="0 0 24 20" fill="none" xmlns="http://www.w3.org/2000/svg">
<path d="M23.201 10.9022C23.0756 9.84813 22.3223 6.58064 17.8065 6.58064C16.74 6.58064 15.8551 6.85935 15.1177 7.30103C15.2218 5.49097 15.9635 3.93871 17.4468 2.45535L17.693 2.20916L17.683 2.1991C17.8378 2.27574 18.0097 2.32258 18.1935 2.32258C18.8338 2.32258 19.3548 1.80155 19.3548 1.16129C19.3548 0.521032 18.8338 0 18.1935 0C17.688 0 17.261 0.32671 17.1023 0.778839C13.2302 0.826065 10.435 1.73419 8.79716 3.48503C7.644 4.71716 7.40671 6.02013 7.36258 6.63484C7.10942 6.59923 6.8489 6.58064 6.58064 6.58064C2.56916 6.58064 1.09471 9.25394 0.815226 10.8972C0.344516 11.0454 0 11.4809 0 12C0 12.6403 0.521032 13.1613 1.16129 13.1613C1.80155 13.1613 2.32258 12.6403 2.32258 12C2.32258 11.6501 2.16387 11.34 1.91845 11.1267C2.29781 10.6854 2.94232 10.4516 3.81445 10.4516C4.34787 10.4516 4.73458 10.6095 4.99742 10.9343C5.52155 11.5827 5.43794 12.7154 5.36903 13.2155C4.51277 13.4148 3.87097 14.1805 3.87097 15.0968L5.13135 19.3548H18.8686L20.1128 15.2079L20.129 15.0968C20.129 14.1801 19.4868 13.4141 18.6294 13.2151C18.5466 12.6248 18.5137 11.5405 19.0014 10.9355C19.2643 10.6099 19.6514 10.4516 20.1855 10.4516C21.0577 10.4516 21.7026 10.6854 22.0815 11.1267C21.8361 11.34 21.6774 11.6501 21.6774 12C21.6774 12.6403 22.1985 13.1613 22.8387 13.1613C23.479 13.1613 24 12.6403 24 12C24 11.4867 23.6632 11.0555 23.201 10.9022ZM18.1935 0.774194C18.4072 0.774194 18.5806 0.948 18.5806 1.16129C18.5806 1.37458 18.4072 1.54839 18.1935 1.54839C17.9799 1.54839 17.8065 1.37458 17.8065 1.16129C17.8065 0.948 17.9799 0.774194 18.1935 0.774194ZM9.36232 4.01381C10.8503 2.42361 13.4563 1.59794 17.105 1.55303C17.1197 1.59406 17.1368 1.63355 17.1557 1.67226L17.1457 1.66219L16.8995 1.90839C15.1413 3.66581 14.3226 5.51961 14.3226 7.74194V7.88245C13.1295 8.93961 12.4425 10.4427 12.0592 11.6295C11.935 11.1546 11.7646 10.6293 11.5316 10.1017C10.7655 8.36594 9.60503 7.24761 8.12826 6.80129C8.14142 6.39677 8.27613 5.17471 9.36232 4.01381ZM1.16129 12.3871C0.947613 12.3871 0.774194 12.2133 0.774194 12C0.774194 11.7867 0.947613 11.6129 1.16129 11.6129C1.37497 11.6129 1.54839 11.7867 1.54839 12C1.54839 12.2133 1.37497 12.3871 1.16129 12.3871ZM5.70697 18.5806L4.64632 15.0437C4.67381 14.4279 5.184 13.9355 5.80645 13.9355C6.44671 13.9355 6.96774 14.4565 6.96774 15.0968H6.96929V15.1355L7.31381 18.5806H5.70697ZM10.0645 18.5806H8.09226L7.74194 15.0968C7.74194 14.4565 8.26297 13.9355 8.90323 13.9355C9.54348 13.9355 10.0645 14.4565 10.0645 15.0968V18.5806ZM10.4516 13.9366C10.0982 13.4663 9.53574 13.1613 8.90323 13.1613C8.27071 13.1613 7.70826 13.4663 7.35484 13.9366C7.06761 13.5542 6.64103 13.2844 6.15213 13.1957C6.22877 12.5361 6.26632 11.2754 5.60129 10.4497C5.18787 9.93716 4.5871 9.67742 3.81445 9.67742C2.90865 9.67742 2.27535 9.88877 1.83019 10.1795C2.29316 9.02206 3.49432 7.35484 6.58064 7.35484C8.49406 7.35484 9.91897 8.37832 10.8151 10.3966C11.3121 11.5161 11.5057 12.6492 11.5761 13.2101C11.1201 13.3126 10.7234 13.5747 10.4516 13.9366ZM13.1613 18.5806H10.8387V15.0968C10.8387 14.4565 11.3597 13.9355 12 13.9355C12.6403 13.9355 13.1613 14.4565 13.1613 15.0968V18.5806ZM19.3537 15.0437L18.2926 18.5806H16.6858L16.7594 17.8452L15.989 17.7681L15.9077 18.581H13.9355V15.0972C13.9355 14.4569 14.4565 13.9359 15.0968 13.9359C15.7339 13.9359 16.2519 14.4515 16.2569 15.0875L16.0665 16.9935L16.8368 17.0706L17.0323 15.0968C17.0323 14.4565 17.5533 13.9355 18.1935 13.9355C18.816 13.9355 19.3262 14.4279 19.3537 15.0437ZM20.1855 9.67742C19.4133 9.67742 18.8121 9.93716 18.3991 10.4497C17.7337 11.275 17.7716 12.5361 17.8483 13.1957C17.3594 13.2844 16.9328 13.5542 16.6455 13.9366C16.2917 13.4663 15.7293 13.1613 15.0968 13.1613C14.4643 13.1613 13.9018 13.4663 13.5484 13.9366C13.2809 13.5805 12.8934 13.32 12.4463 13.2139C12.552 12.6465 12.8129 11.5235 13.3711 10.4137C14.3919 8.38413 15.8841 7.35484 17.8065 7.35484C20.9582 7.35484 21.9716 9.12 22.2972 10.2685C21.8481 9.93252 21.1812 9.67742 20.1855 9.67742ZM22.8387 12.3871C22.625 12.3871 22.4516 12.2133 22.4516 12C22.4516 11.7867 22.625 11.6129 22.8387 11.6129C23.0524 11.6129 23.2258 11.7867 23.2258 12C23.2258 12.2133 23.0524 12.3871 22.8387 12.3871Z" fill="black"/>
</svg>
